<svg width="243" height="91" viewBox="0 0 243 91" fill="none" xmlns="http://www.w3.org/2000/svg">
<path d="M0.373404 75.5152C-2.4266 68.3152 11.2067 67.5152 18.3734 68.0152C17.7067 65.0153 17.3734 58.1154 21.3734 54.5154C25.3734 50.9154 30.7067 52.0154 32.8734 53.0154C32.7067 49.182 34.3734 40.1154 42.3734 34.5154C50.3734 28.9154 61.7067 32.182 66.3734 34.5154C65.7067 25.5154 69.6734 6.21544 90.8734 1.01544C112.073 -4.18456 124.04 11.8487 127.373 20.5154C131.873 18.5154 143.673 15.7154 154.873 20.5154C166.073 25.3154 170.54 37.5153 171.373 43.0153C174.54 41.8486 182.373 40.2153 188.373 43.0153C194.373 45.8153 196.54 52.8486 196.873 56.0153C197.207 55.0153 199.473 53.0153 205.873 53.0153C213.873 53.0153 214.873 64.0153 214.873 66.5153C222.873 66.5153 242.373 67.0153 242.373 74.5153C242.373 82.0153 236.373 87.0153 222.873 86.5153C209.373 86.0153 137.873 84.0153 125.373 85.0153C112.873 86.0153 51.3734 90.5153 34.3734 90.0153C17.3734 89.5153 3.8734 84.5152 0.373404 75.5152Z" fill="#CBF2FD"/>
</svg>
