<svg width="30" height="30" viewBox="0 0 30 30" fill="none" xmlns="http://www.w3.org/2000/svg">
<g clip-path="url(#clip0)">
<path d="M23.7095 18.5839C23.0953 17.9444 22.3545 17.6025 21.5693 17.6025C20.7905 17.6025 20.0434 17.9381 19.4039 18.5776L17.4031 20.5721C17.2385 20.4834 17.0738 20.4011 16.9155 20.3188C16.6876 20.2048 16.4723 20.0972 16.2887 19.9832C14.4145 18.7928 12.7113 17.2416 11.0777 15.2344C10.2862 14.234 9.75438 13.3919 9.36814 12.5371C9.88734 12.0622 10.3686 11.5684 10.8371 11.0935C11.0144 10.9162 11.1917 10.7326 11.369 10.5553C12.6986 9.22564 12.6986 7.50341 11.369 6.17376L9.64041 4.4452C9.44412 4.24892 9.24151 4.0463 9.05156 3.84369C8.67166 3.45112 8.27276 3.04589 7.8612 2.66599C7.24702 2.05815 6.51254 1.73523 5.74008 1.73523C4.96761 1.73523 4.22047 2.05815 3.5873 2.66599C3.58097 2.67232 3.58097 2.67232 3.57463 2.67865L1.42185 4.85043C0.611396 5.66089 0.149181 6.64863 0.0478741 7.79467C-0.104087 9.64353 0.44044 11.3658 0.858332 12.4928C1.88407 15.2598 3.41634 17.8241 5.70209 20.5721C8.47537 23.8835 11.8122 26.4985 15.6239 28.3411C17.0802 29.0312 19.024 29.848 21.1958 29.9873C21.3287 29.9936 21.468 30 21.5947 30C23.0573 30 24.2856 29.4744 25.2481 28.4297C25.2544 28.417 25.2671 28.4107 25.2734 28.398C25.6026 27.9991 25.9825 27.6382 26.3814 27.252C26.6537 26.9924 26.9323 26.7201 27.2046 26.4352C27.8314 25.783 28.1606 25.0232 28.1606 24.2444C28.1606 23.4593 27.8251 22.7058 27.1856 22.0727L23.7095 18.5839ZM25.9762 25.2512C25.9699 25.2512 25.9699 25.2575 25.9762 25.2512C25.7293 25.5171 25.476 25.7577 25.2037 26.0237C24.7922 26.4162 24.3743 26.8278 23.9817 27.29C23.3422 27.9738 22.5887 28.2967 21.601 28.2967C21.506 28.2967 21.4047 28.2967 21.3097 28.2904C19.4292 28.1701 17.6817 27.4356 16.371 26.8088C12.7873 25.0739 9.64041 22.6109 7.02541 19.4893C4.8663 16.887 3.42267 14.481 2.46659 11.8976C1.87774 10.321 1.66246 9.09267 1.75743 7.93397C1.82075 7.19316 2.10568 6.57898 2.63121 6.05345L4.79032 3.89434C5.10057 3.60308 5.42982 3.44479 5.75274 3.44479C6.15164 3.44479 6.47455 3.6854 6.67717 3.88801C6.6835 3.89434 6.68983 3.90067 6.69616 3.907C7.0824 4.26791 7.44964 4.64148 7.83587 5.04038C8.03215 5.243 8.23477 5.44561 8.43738 5.65456L10.1659 7.38311C10.8371 8.05427 10.8371 8.67478 10.1659 9.34594C9.98232 9.52956 9.80503 9.71318 9.62141 9.89047C9.08955 10.435 8.58301 10.9415 8.03215 11.4354C8.01949 11.4481 8.00683 11.4544 8.0005 11.4671C7.45597 12.0116 7.55728 12.5435 7.67125 12.9044C7.67758 12.9234 7.68391 12.9423 7.69024 12.9613C8.13979 14.0504 8.77296 15.0761 9.73538 16.2982L9.74171 16.3045C11.4893 18.4573 13.3318 20.1352 15.3643 21.4205C15.6239 21.5851 15.8898 21.7181 16.1431 21.8447C16.371 21.9587 16.5863 22.0663 16.7699 22.1803C16.7952 22.193 16.8206 22.212 16.8459 22.2246C17.0612 22.3323 17.2638 22.3829 17.4727 22.3829C17.9983 22.3829 18.3275 22.0537 18.4351 21.946L20.6006 19.7806C20.8159 19.5653 21.1578 19.3057 21.5567 19.3057C21.9492 19.3057 22.2722 19.5527 22.4684 19.7679C22.4748 19.7743 22.4748 19.7743 22.4811 19.7806L25.9699 23.2694C26.622 23.9152 26.622 24.58 25.9762 25.2512Z" fill="black"/>
<path d="M16.2127 7.13623C17.8716 7.41482 19.3786 8.19996 20.5816 9.40298C21.7846 10.606 22.5634 12.1129 22.8483 13.7719C22.918 14.1897 23.2789 14.481 23.6905 14.481C23.7411 14.481 23.7854 14.4747 23.8361 14.4683C24.3046 14.3924 24.6149 13.9491 24.5389 13.4806C24.197 11.4734 23.2472 9.64358 21.7973 8.19362C20.3473 6.74366 18.5175 5.79391 16.5103 5.452C16.0418 5.37602 15.6049 5.68627 15.5226 6.14848C15.4403 6.6107 15.7442 7.06025 16.2127 7.13623Z" fill="black"/>
<path d="M29.9652 13.2336C29.4017 9.92848 27.8441 6.92092 25.4507 4.52754C23.0573 2.13415 20.0497 0.576553 16.7446 0.0130316C16.2824 -0.0692806 15.8455 0.247305 15.7632 0.709519C15.6872 1.17807 15.9975 1.61495 16.466 1.69727C19.4166 2.19747 22.1075 3.59678 24.2477 5.73056C26.3878 7.87068 27.7808 10.5617 28.281 13.5122C28.3506 13.9301 28.7115 14.2214 29.1231 14.2214C29.1737 14.2214 29.2181 14.215 29.2687 14.2087C29.7309 14.1391 30.0475 13.6958 29.9652 13.2336Z" fill="black"/>
</g>
<defs>
<clipPath id="clip0">
<rect width="30" height="30" fill="white"/>
</clipPath>
</defs>
</svg>
